<?xml version="1.0" standalone="no"?>
<!DOCTYPE svg PUBLIC "-//W3C//DTD SVG 20010904//EN"
 "http://www.w3.org/TR/2001/REC-SVG-20010904/DTD/svg10.dtd">
<svg version="1.0" xmlns="http://www.w3.org/2000/svg"
 width="500.000000pt" height="500.000000pt" viewBox="0 0 500.000000 500.000000"
 preserveAspectRatio="xMidYMid meet">

<g transform="translate(0.000000,500.000000) scale(0.100000,-0.100000)"
fill="#000000" stroke="none">
<path d="M1135 3004 c-69 -17 -85 -33 -85 -86 0 -148 160 -251 295 -189 83 37
139 140 119 219 -9 35 -12 38 -74 54 -79 20 -175 21 -255 2z"/>
<path d="M2203 2912 c-30 -25 -31 -28 -18 -52 11 -19 14 -67 15 -192 l0 -168
45 0 45 0 0 169 c0 138 3 171 15 181 12 10 18 10 30 0 12 -10 15 -43 15 -181
l0 -169 45 0 45 0 0 174 c0 183 5 203 41 170 17 -16 19 -32 19 -181 l0 -163
40 0 40 0 0 179 0 179 -46 41 c-53 47 -62 49 -97 21 -32 -25 -38 -25 -72 1
-26 21 -28 21 -63 5 -32 -16 -36 -16 -44 -2 -12 21 -18 20 -55 -12z"/>
<path d="M2877 2912 c-73 -53 -77 -67 -77 -249 l0 -163 40 0 40 0 0 45 0 45
45 0 45 0 0 -45 0 -45 40 0 40 0 0 165 c0 140 -3 170 -17 192 -19 29 -89 83
-108 83 -6 0 -28 -12 -48 -28z m77 -84 c11 -15 16 -45 16 -90 l0 -68 -46 0
-46 0 4 74 c5 99 36 135 72 84z"/>
<path d="M3128 2914 l-35 -25 18 -37 c15 -29 19 -59 19 -144 l0 -108 37 -41
c46 -51 87 -73 111 -60 10 5 37 30 60 55 l42 46 0 165 0 165 -40 0 -40 0 0
-154 c0 -132 -3 -157 -18 -176 -21 -25 -45 -19 -61 16 -6 14 -11 74 -11 135 0
105 -13 167 -37 182 -5 3 -25 -5 -45 -19z"/>
<path d="M3458 2914 l-35 -25 18 -37 c16 -31 19 -60 19 -194 l0 -158 40 0 40
0 0 90 0 90 30 0 c37 0 46 -19 55 -112 l7 -68 44 0 44 0 -1 38 c-1 81 -16 142
-39 167 l-23 25 21 23 c15 16 22 36 22 64 0 35 -6 46 -45 82 -50 46 -54 47
-96 25 -28 -14 -32 -14 -48 0 -15 14 -20 13 -53 -10z m146 -86 c11 -33 -14
-78 -44 -78 -17 0 -20 7 -20 49 0 30 5 51 13 54 24 10 42 2 51 -25z"/>
<path d="M2650 2715 l0 -215 40 0 40 0 0 215 0 215 -40 0 -40 0 0 -215z"/>
<path d="M3780 2715 l0 -215 40 0 40 0 0 215 0 215 -40 0 -40 0 0 -215z"/>
<path d="M837 2802 c-49 -54 -97 -204 -97 -304 0 -48 1 -49 43 -68 23 -11 60
-20 83 -20 57 0 136 42 170 91 55 79 42 202 -28 265 -57 53 -140 70 -171 36z"/>
<path d="M1558 2800 c-20 -11 -50 -36 -66 -56 -136 -164 47 -402 243 -315 l48
21 -6 78 c-7 92 -29 165 -71 236 -28 47 -34 51 -71 53 -24 2 -54 -5 -77 -17z"/>
<path d="M1238 2648 c-8 -21 2 -38 22 -38 22 0 33 23 17 39 -15 15 -34 14 -39
-1z"/>
<path d="M1217 2562 c-22 -25 -21 -55 2 -76 27 -25 72 -17 90 15 13 24 13 29
-2 53 -21 31 -66 35 -90 8z"/>
<path d="M1128 2538 c-12 -33 19 -51 41 -25 8 10 7 17 -1 25 -16 16 -35 15
-40 0z"/>
<path d="M1346 2534 c-4 -10 -2 -22 3 -27 14 -14 43 0 39 20 -4 24 -34 28 -42
7z"/>
<path d="M1236 2431 c-9 -13 4 -41 18 -41 18 0 35 21 29 36 -6 16 -39 19 -47
5z"/>
<path d="M962 2370 c-50 -12 -105 -53 -130 -98 l-22 -40 41 -51 c22 -29 67
-72 100 -96 61 -45 163 -90 185 -81 20 8 61 68 74 110 45 141 -101 292 -248
256z"/>
<path d="M1447 2367 c-88 -28 -147 -108 -147 -197 0 -62 18 -106 58 -144 29
-27 32 -27 69 -16 127 41 286 183 268 239 -27 86 -157 148 -248 118z"/>
<path d="M2520 2235 c0 -128 18 -142 22 -17 l3 87 34 -87 c19 -49 39 -88 45
-88 6 0 24 36 41 81 16 44 32 82 35 84 3 2 4 -35 2 -81 -3 -71 -1 -84 12 -84
14 0 16 16 16 105 0 96 -2 105 -19 105 -14 0 -26 -21 -51 -85 -18 -47 -34 -85
-35 -85 -1 0 -17 38 -35 85 -25 64 -37 85 -51 85 -17 0 -19 -9 -19 -105z"/>
<path d="M2805 2315 c-21 -20 -25 -34 -25 -80 0 -71 28 -105 87 -105 49 0 78
21 93 66 15 46 0 106 -33 129 -34 24 -94 19 -122 -10z m115 -15 c14 -14 20
-33 20 -65 0 -53 -25 -85 -67 -85 -34 0 -46 8 -62 37 -43 82 46 176 109 113z"/>
<path d="M2990 2337 c0 -24 75 -207 85 -207 7 0 27 42 45 93 18 50 35 98 38
105 2 6 -2 12 -10 12 -8 0 -25 -34 -42 -85 -16 -47 -30 -84 -32 -82 -2 2 -16
38 -31 82 -15 43 -34 80 -40 83 -7 2 -13 1 -13 -1z"/>
<path d="M3190 2235 c0 -63 4 -105 10 -105 6 0 10 42 10 105 0 63 -4 105 -10
105 -6 0 -10 -42 -10 -105z"/>
<path d="M3270 2235 l0 -105 60 0 c33 0 60 4 60 10 0 6 -20 10 -45 10 l-45 0
0 40 0 40 40 0 c22 0 40 5 40 10 0 6 -18 10 -40 10 -39 0 -40 1 -40 35 0 35 0
35 45 35 25 0 45 5 45 10 0 6 -27 10 -60 10 l-60 0 0 -105z"/>
<path d="M3434 2315 c-23 -35 -9 -64 43 -87 49 -22 62 -40 42 -64 -10 -12 -25
-15 -57 -11 -29 3 -42 1 -39 -7 6 -19 87 -19 108 0 38 34 20 75 -46 105 -22
10 -30 21 -30 39 0 23 4 25 43 24 29 0 42 3 42 13 0 9 -14 13 -45 13 -36 0
-48 -5 -61 -25z"/>
<path d="M1852 2033 c-21 -29 -21 -33 -6 -82 27 -92 101 -149 215 -166 53 -8
51 -11 64 105 4 30 9 62 11 71 4 16 1 16 -38 2 -26 -9 -63 -13 -92 -10 -51 5
-75 23 -117 86 l-15 24 -22 -30z"/>
</g>
</svg>
